<svg xmlns="http://www.w3.org/2000/svg" viewBox="0 0 1000 557.69">
    <path class="path" fill="#002e63" d="m1000,382.4h-85.99c-7.21,0-13.74-2.92-18.46-7.65-4.52-4.52-7.39-10.69-7.62-17.54h-.03l.13-111.89c0-.89-.3-1.76-.85-2.47l-64.84-83.2c-1.04-1.28-2.38-1.46-3.1-1.46h0c-.71,0-2.08.19-3.13,1.5l-.1.12-68.52,83.23c-.59.71-.92,1.62-.92,2.54v110.82c0,7.18-2.91,13.68-7.62,18.39-4.7,4.71-11.2,7.62-18.39,7.62h-18.16c-14.37,0-26-11.65-26-26v-191.16c0-.58-.13-1.17-.37-1.7l-65.14-140.15c-.95-1.96-2.66-2.26-3.6-2.26-.47,0-1.14.07-1.81.4-.66.32-1.33.89-1.81,1.89l-.04.07-68.15,140.13c-.26.54-.4,1.14-.4,1.75v191.03c0,7.18-2.91,13.68-7.62,18.39-4.71,4.71-11.21,7.62-18.4,7.62h-18.15c-14.37,0-26.01-11.65-26.01-26v-78.52c0-1.09-.45-2.16-1.25-2.91l-65.41-62.02c-1.52-1.44-3.92-1.46-5.47-.05l-67.89,62.18c-.83.76-1.3,1.84-1.3,2.96v78.36c0,7.18-2.91,13.68-7.62,18.39-4.71,4.71-11.21,7.62-18.39,7.62h-18.16c-14.36,0-26-11.65-26-26v-139.02c0-.86-.28-1.71-.8-2.41l-66.63-88.84c-1.05-1.4-2.46-1.6-3.21-1.6-.38,0-.92.05-1.49.28s-1.19.62-1.71,1.32l-66.67,88.85c-.52.69-.8,1.55-.8,2.41v138.92c0,7.21-2.92,13.74-7.65,18.46-4.73,4.72-11.25,7.65-18.46,7.65H0s28.19-10.68,90.97-26.11v-138.92c0-5.41,1.79-10.76,5.03-15.09l66.67-88.84c4.8-6.39,12.13-10.05,20.12-10.05,3.99,0,7.83.92,11.25,2.63,3.43,1.72,6.46,4.23,8.86,7.43l66.63,88.84c3.24,4.32,5.03,9.69,5.03,15.09v108.73c9.2-.99,18.5-1.92,27.89-2.79v-45.28c0-7.03,2.97-13.8,8.16-18.55l67.89-62.17c9.69-8.88,24.75-8.75,34.28.3l65.41,62.02c4.99,4.72,7.84,11.38,7.84,18.24v36.59c4.64-.04,9.29-.05,13.95-.05s9.31.01,13.95.05v-149.1c0-3.79.87-7.59,2.53-11L584.62,14.28c4.23-8.8,12.91-14.28,22.67-14.28h.01c9.8,0,18.49,5.5,22.7,14.35l.04.08,65.16,140.21c1.53,3.29,2.34,6.96,2.34,10.6v158.08c9.39.87,18.69,1.8,27.89,2.79v-80.53c0-5.82,2.03-11.49,5.74-15.98l68.48-83.17c4.8-5.95,11.93-9.37,19.58-9.37h0c7.69,0,14.84,3.44,19.64,9.45l.08.1,64.89,83.27c3.43,4.4,5.32,9.9,5.31,15.48l-.13,110.94h0c62.77,15.43,90.97,26.11,90.97,26.11Z"></path><path class="path" fill="#002e63" d="m67.12,505.87c0,15.95-12.28,27.59-28.85,27.59s-27.61-11.13-28.14-27.17h17.49c.31,6.56,4.5,10.85,10.65,10.85,6.54,0,11.22-4.88,11.22-11.84s-4.96-11.32-12.44-11.32h-11.83v-3.28l14.83-24.48H12.09v-15.65h51.94v3.25l-16.85,26.85c12.09,2.71,19.93,12.39,19.93,25.19Z"></path><path class="path" fill="#002e63" d="m150.42,498.93c0,20.02-14.6,34.93-34.76,34.93-8.03,0-15.17-2.72-20.7-7.4l-2.12,5.53h-13.2v-89.95h17.88v27.41c5.11-3.47,11.3-5.45,18.14-5.45,20.16,0,34.76,14.89,34.76,34.93Zm-36.22,18.02c10.39,0,18-7.74,18-18.02s-7.61-18.12-18-18.12-18.02,7.76-18.02,18.12,7.64,18.02,18.02,18.02h0Z"></path><path class="path" fill="#002e63" d="m222.22,465.87l-28.82,65.24c-7.93,17.92-14.89,24.71-29.73,24.71h-7.37v-16.07h6.19c8.62,0,10.85-2.29,14.92-12.29l.25-.54-28.01-61.05h19.46l17.64,40.68,16.47-40.68h19.01Z"></path><path class="path" fill="#002e63" d="m292.27,465.87v58.44c0,20.7-12.87,33.38-33.77,33.38-17.91,0-30.64-9.17-33.69-24.28h17.78c2.02,5.96,9.02,8.98,15.62,8.98,9.03,0,16.54-5.84,16.54-15.52v-2.46c-5.26,3.73-11.75,5.89-18.9,5.89-18.47,0-32.87-14.5-32.87-33.09s14.4-33.22,32.87-33.22c8.62,0,16.27,3.16,21.97,8.43l2.88-6.56h11.58Zm-17.45,31.35c0-9.83-7-17.03-16.85-17.03s-16.87,7.22-16.87,17.03,7.02,17.11,16.87,17.11,16.85-7.2,16.85-17.11Z"></path><path class="path" fill="#002e63" d="m372.96,465.87v58.44c0,20.7-12.87,33.38-33.77,33.38-17.91,0-30.64-9.17-33.69-24.28h17.78c2.02,5.96,9.02,8.98,15.62,8.98,9.03,0,16.54-5.84,16.54-15.52v-2.46c-5.26,3.73-11.75,5.89-18.9,5.89-18.47,0-32.87-14.5-32.87-33.09s14.4-33.22,32.87-33.22c8.62,0,16.27,3.16,21.97,8.43l2.88-6.56h11.58Zm-17.45,31.35c0-9.83-7-17.03-16.85-17.03s-16.87,7.22-16.87,17.03,7.02,17.11,16.87,17.11,16.85-7.2,16.85-17.11Z"></path><path class="path" fill="#002e63" d="m452.87,498.7c0,1.75-.12,3.49-.35,5.24h-50.04c1.55,9.02,7.49,13.99,16.16,13.99,6.21,0,11.31-2.94,14.03-7.67h18.79c-4.81,14.42-17.46,23.6-32.81,23.6-19.52,0-34.3-15.12-34.3-34.93s14.67-34.93,34.3-34.93,34.23,15.65,34.23,34.7h0Zm-49.91-6.97h32.04c-2.53-8.08-8.33-12.47-16.35-12.47s-13.61,4.64-15.69,12.47Z"></path><path class="path" fill="#002e63" d="m503.58,516.08v15.92h-12.7c-14.55,0-23.49-8.94-23.49-23.61v-28.14h-11.96v-3.86l26.11-27.76h3.42v17.25h18.24v14.37h-17.94v25.77c0,6.39,3.67,10.06,10.19,10.06h8.13Z"></path><path class="path" fill="#002e63" d="m514.31,465.87h17.88v66.12h-17.88v-66.12Zm.03-25.44h17.81v16.62h-17.81v-16.62Z"></path><path class="path" fill="#002e63" d="m547.86,442.04h17.88v89.95h-17.88v-89.95Z"></path><path class="path" fill="#002e63" d="m652.19,498.93c0,20.02-14.6,34.93-34.76,34.93-8.03,0-15.17-2.72-20.7-7.4l-2.12,5.53h-13.2v-89.95h17.88v27.41c5.11-3.47,11.3-5.45,18.14-5.45,20.16,0,34.76,14.89,34.76,34.93Zm-36.22,18.02c10.39,0,18-7.74,18-18.02s-7.61-18.12-18-18.12-18.02,7.76-18.02,18.12,7.64,18.02,18.02,18.02h0Z"></path><path class="path" fill="#002e63" d="m660.22,504.08v-38.2h17.88v36.17c0,9.41,4.98,15.02,13.24,15.02s13.13-5.73,13.13-15.02v-36.17h17.88v38.2c0,17.85-12.31,29.79-31.01,29.79s-31.11-11.93-31.11-29.79Z"></path><path class="path" fill="#002e63" d="m801.39,442.04v89.95h-13.2l-2.11-5.51c-5.55,4.72-12.69,7.48-20.71,7.48-20.06,0-34.76-15.02-34.76-35.03s14.7-34.93,34.76-34.93c6.83,0,13.03,1.98,18.14,5.48v-27.44h17.88Zm-16.54,56.89c0-10.36-7.64-18.12-18.02-18.12s-18,7.74-18,18.12,7.61,18.12,18,18.12,18.02-7.78,18.02-18.12Z"></path><path class="path" fill="#002e63" d="m814.14,512.87h18.94v19.12h-18.94v-19.12Z"></path><path class="path" fill="#002e63" d="m914.28,442.04v89.95h-13.2l-2.11-5.51c-5.55,4.72-12.69,7.48-20.71,7.48-20.06,0-34.76-15.02-34.76-35.03s14.7-34.93,34.76-34.93c6.83,0,13.03,1.98,18.14,5.48v-27.44h17.88Zm-16.54,56.89c0-10.36-7.64-18.12-18.02-18.12s-18,7.74-18,18.12,7.61,18.12,18,18.12,18.02-7.78,18.02-18.12Z"></path><path class="path" fill="#002e63" d="m968.22,531.99l-21.16-31.63v31.63h-17.88v-89.95h17.88v53.21l19.85-29.38h20.59l-22.37,31.49,24.75,34.63h-21.66Z"></path>
</svg>